<?xml version="1.0" encoding="UTF-8"?>
<!DOCTYPE svg PUBLIC "-//W3C//DTD SVG 1.1//EN" "http://www.w3.org/Graphics/SVG/1.1/DTD/svg11.dtd">
<svg xmlns="http://www.w3.org/2000/svg" version="1.1" width="2298px" height="2243px" style="shape-rendering:geometricPrecision; text-rendering:geometricPrecision; image-rendering:optimizeQuality; fill-rule:evenodd; clip-rule:evenodd" xmlns:xlink="http://www.w3.org/1999/xlink">
<g><path style="opacity:1" fill="#f2f4f2" d="M 1108.5,-0.5 C 1135.5,-0.5 1162.5,-0.5 1189.5,-0.5C 1315.88,4.20879 1438.55,28.3755 1557.5,72C 1571.05,77.2329 1584.39,82.7329 1597.5,88.5C 1610.13,94.8139 1622.79,101.147 1635.5,107.5C 1842.04,216.547 1994.88,376.88 2094,588.5C 2173.2,766.232 2199.2,951.565 2172,1144.5C 2145.07,1323.15 2075.07,1482.15 1962,1621.5C 1793.35,1824.17 1578.18,1947.67 1316.5,1992C 1050.86,2032.01 804.857,1980.34 578.5,1837C 409.565,1725.73 283.398,1577.89 200,1393.5C 106.482,1171.92 93.149,945.582 160,714.5C 222.229,510.718 336.729,343.218 503.5,212C 561.86,165.797 624.86,126.63 692.5,94.5C 705.231,88.4659 717.898,82.4659 730.5,76.5C 818.781,42.0963 910.115,19.263 1004.5,8C 1039.23,3.97353 1073.89,1.1402 1108.5,-0.5 Z"/></g>
<g><path style="opacity:1" fill="#437e3e" d="M 730.5,76.5 C 717.898,82.4659 705.231,88.4659 692.5,94.5C 690.374,93.8968 688.041,93.8968 685.5,94.5C 700.105,87.7041 715.105,81.7041 730.5,76.5 Z"/></g>
<g><path style="opacity:1" fill="#075d05" d="M 692.5,94.5 C 624.86,126.63 561.86,165.797 503.5,212C 336.729,343.218 222.229,510.718 160,714.5C 93.149,945.582 106.482,1171.92 200,1393.5C 283.398,1577.89 409.565,1725.73 578.5,1837C 804.857,1980.34 1050.86,2032.01 1316.5,1992C 1578.18,1947.67 1793.35,1824.17 1962,1621.5C 2075.07,1482.15 2145.07,1323.15 2172,1144.5C 2199.2,951.565 2173.2,766.232 2094,588.5C 1994.88,376.88 1842.04,216.547 1635.5,107.5C 1635.33,106.508 1635.66,105.842 1636.5,105.5C 1827.61,193.422 1983.44,323.756 2104,496.5C 2222.29,670.838 2286.79,863.504 2297.5,1074.5C 2297.5,1105.5 2297.5,1136.5 2297.5,1167.5C 2279.53,1469.48 2161.53,1724.32 1943.5,1932C 1749.08,2110.02 1519.74,2212.02 1255.5,2238C 1234.36,2239.72 1213.36,2241.22 1192.5,2242.5C 1163.5,2242.5 1134.5,2242.5 1105.5,2242.5C 842.27,2230.62 608.936,2142.12 405.5,1977C 382.704,1957.7 360.704,1937.54 339.5,1916.5C 331.779,1907.78 323.446,1899.78 314.5,1892.5C 114.182,1682.75 9.18207,1432.08 -0.5,1140.5C -0.5,1127.5 -0.5,1114.5 -0.5,1101.5C 9.22678,808.838 114.893,557.504 316.5,347.5C 324.111,341.557 331.111,334.891 337.5,327.5C 438.463,227.972 554.463,150.306 685.5,94.5C 688.041,93.8968 690.374,93.8968 692.5,94.5 Z"/></g>
<g><path style="opacity:1" fill="#0987d5" d="M 1130.5,102.5 C 1163.9,100.9 1195.9,106.733 1226.5,120C 1277.12,145.304 1326.45,172.637 1374.5,202C 1401.99,216.574 1428.99,231.907 1455.5,248C 1469.57,256.731 1480.07,268.565 1487,283.5C 1488.72,292.838 1487.05,301.504 1482,309.5C 1475.09,318.417 1466.92,325.917 1457.5,332C 1396.99,367.758 1335.99,402.758 1274.5,437C 1252.57,448.8 1230.23,459.8 1207.5,470C 1164.26,484.547 1121.93,482.214 1080.5,463C 1024.48,433.602 969.475,402.602 915.5,370C 887.528,356.689 860.861,341.355 835.5,324C 818.206,308.566 814.706,290.4 825,269.5C 828.5,266 832,262.5 835.5,259C 849.984,248.256 864.984,238.256 880.5,229C 933.148,200.68 985.148,171.346 1036.5,141C 1066.67,124.898 1098.01,112.065 1130.5,102.5 Z"/></g>
<g><path style="opacity:1" fill="#417e3c" d="M 1597.5,88.5 C 1610.91,93.3742 1623.91,99.0408 1636.5,105.5C 1635.66,105.842 1635.33,106.508 1635.5,107.5C 1622.79,101.147 1610.13,94.8139 1597.5,88.5 Z"/></g>
<g><path style="opacity:1" fill="#d7e7e7" d="M 1165.5,178.5 C 1175.17,178.334 1184.84,178.5 1194.5,179C 1207.31,179.483 1217.15,184.983 1224,195.5C 1224.78,196.944 1224.61,198.277 1223.5,199.5C 1218.5,203.914 1212.67,206.248 1206,206.5C 1197.98,205.079 1190.15,202.912 1182.5,200C 1170.73,198.609 1160.06,201.276 1150.5,208C 1125.78,220.906 1099.78,230.24 1072.5,236C 1066.26,243.15 1060.26,250.483 1054.5,258C 1040.76,268.621 1026.92,279.121 1013,289.5C 1012.3,295.414 1014.3,300.08 1019,303.5C 1019.67,307.833 1019.67,312.167 1019,316.5C 1005.79,322.353 992.954,321.519 980.5,314C 969.945,307.725 965.779,298.558 968,286.5C 973.587,274.575 981.754,264.741 992.5,257C 1000.08,250.959 1008.24,245.792 1017,241.5C 1017.5,236.177 1017.67,230.844 1017.5,225.5C 1016.32,225.719 1015.32,225.386 1014.5,224.5C 1011.83,219.104 1010.99,213.437 1012,207.5C 1012.83,206.667 1013.67,205.833 1014.5,205C 1026.49,205.239 1038.49,205.739 1050.5,206.5C 1066.33,206.899 1081.67,204.399 1096.5,199C 1118.51,188.312 1141.51,181.478 1165.5,178.5 Z"/></g>
<g><path style="opacity:1" fill="#d7e7e7" d="M 1297.5,239.5 C 1308.42,238.692 1319.08,239.859 1329.5,243C 1339.22,247.883 1345.89,255.383 1349.5,265.5C 1347.28,275.9 1341.95,284.4 1333.5,291C 1321.83,299.333 1310.17,307.667 1298.5,316C 1295.62,318.175 1293.12,320.675 1291,323.5C 1290.33,324.5 1290.33,325.5 1291,326.5C 1297.52,333.196 1301.02,341.196 1301.5,350.5C 1282.16,350.086 1262.83,349.919 1243.5,350C 1230.38,355.392 1217.38,361.058 1204.5,367C 1174.63,379.442 1143.63,383.775 1111.5,380C 1096.69,376.699 1089.69,367.532 1090.5,352.5C 1103.98,350.753 1117.31,351.586 1130.5,355C 1141.74,356.786 1152.4,355.119 1162.5,350C 1175.77,342.533 1189.43,335.866 1203.5,330C 1217.04,324.859 1231.04,322.359 1245.5,322.5C 1247.83,313.023 1252.83,305.19 1260.5,299C 1271.67,291.58 1282.67,283.913 1293.5,276C 1296,272.833 1298.5,269.667 1301,266.5C 1301.63,264.365 1301.3,262.365 1300,260.5C 1297.33,257.167 1294.67,253.833 1292,250.5C 1291.5,247.518 1291.34,244.518 1291.5,241.5C 1293.79,241.405 1295.79,240.738 1297.5,239.5 Z"/></g>
<g><path style="opacity:0.867" fill="#62865f" d="M 337.5,327.5 C 331.111,334.891 324.111,341.557 316.5,347.5C 322.889,340.109 329.889,333.443 337.5,327.5 Z"/></g>
<g><path style="opacity:1" fill="#a34def" d="M 1517.5,383.5 C 1541.04,379.51 1556.21,388.843 1563,411.5C 1565.57,421.354 1567.24,431.354 1568,441.5C 1568.56,519.169 1568.89,596.835 1569,674.5C 1568.22,706.306 1560.55,736.306 1546,764.5C 1529.79,789.045 1509.29,809.212 1484.5,825C 1443.47,850.186 1401.47,873.853 1358.5,896C 1330.14,914.185 1300.81,930.852 1270.5,946C 1256.5,952.666 1241.83,956.833 1226.5,958.5C 1212.37,958.853 1202.54,952.52 1197,939.5C 1190.54,921.063 1187.54,902.063 1188,882.5C 1187.67,827.323 1186.84,772.157 1185.5,717C 1184.63,688.699 1186.13,660.532 1190,632.5C 1198.72,585.184 1223.22,548.684 1263.5,523C 1331.33,484.253 1399,445.253 1466.5,406C 1482.88,396.804 1499.88,389.304 1517.5,383.5 Z"/></g>
<g><path style="opacity:1" fill="#f32553" d="M 767.5,386.5 C 776.552,386.193 785.552,386.693 794.5,388C 804.38,390.738 814.047,394.071 823.5,398C 856.833,417.333 890.167,436.667 923.5,456C 953.326,471.746 982.993,487.746 1012.5,504C 1038.6,518.76 1061.77,537.26 1082,559.5C 1101.91,583.885 1113.25,611.885 1116,643.5C 1116.67,733.5 1116.67,823.5 1116,913.5C 1115.63,930.418 1108.79,943.918 1095.5,954C 1092.58,955.528 1089.58,956.861 1086.5,958C 1079.17,958.667 1071.83,958.667 1064.5,958C 1055.87,955.791 1047.54,952.791 1039.5,949C 972.319,910.24 904.652,872.24 836.5,835C 804.296,818.131 778.463,794.298 759,763.5C 747.792,743.543 740.792,722.21 738,699.5C 736.38,617.513 736.046,535.513 737,453.5C 737.293,438.822 739.626,424.489 744,410.5C 748.044,398.624 755.877,390.624 767.5,386.5 Z"/></g>
<g><path style="opacity:1" fill="#d8e6e8" d="M 1465.5,505.5 C 1471.51,505.334 1477.51,505.501 1483.5,506C 1496.78,526.14 1501.61,548.307 1498,572.5C 1498.85,577.941 1500.02,583.274 1501.5,588.5C 1508.51,589.192 1515.51,590.025 1522.5,591C 1525.27,595.817 1526.1,600.984 1525,606.5C 1517.03,613.469 1509.36,620.802 1502,628.5C 1494.78,639.27 1489.45,650.937 1486,663.5C 1482.03,681.932 1477.7,700.266 1473,718.5C 1466.36,732.299 1457.86,744.799 1447.5,756C 1440.93,761.561 1433.6,765.894 1425.5,769C 1422.17,769.667 1418.83,769.667 1415.5,769C 1412.81,763.516 1412.98,758.016 1416,752.5C 1424.07,745.1 1431.4,737.1 1438,728.5C 1440.27,724.286 1442.27,719.953 1444,715.5C 1447.66,698.195 1451.33,680.862 1455,663.5C 1459.12,652.766 1463.62,642.266 1468.5,632C 1465.52,619.944 1463.02,607.777 1461,595.5C 1460.44,585.284 1460.94,575.118 1462.5,565C 1462.54,557.195 1461.04,549.695 1458,542.5C 1456.3,541.267 1454.3,540.6 1452,540.5C 1446.52,541.165 1441.02,541.498 1435.5,541.5C 1435.33,536.156 1435.5,530.823 1436,525.5C 1442.76,514.232 1452.59,507.565 1465.5,505.5 Z"/></g>
<g><path style="opacity:1" fill="#d9e6e6" d="M 897.5,515.5 C 904.252,514.976 910.085,516.976 915,521.5C 917.224,535.515 922.558,548.182 931,559.5C 938.197,567.031 945.697,574.198 953.5,581C 965.658,589.913 977.992,598.579 990.5,607C 1004.33,620.821 1014.5,636.988 1021,655.5C 1022.41,662.785 1022.75,670.118 1022,677.5C 1021.21,682.634 1018.38,685.134 1013.5,685C 1009.73,683.698 1006.56,681.531 1004,678.5C 999.89,660.77 991.057,645.936 977.5,634C 964.833,625.333 952.167,616.667 939.5,608C 930.908,600.246 923.242,591.746 916.5,582.5C 902.364,579.906 888.364,576.74 874.5,573C 865.833,568.667 857.167,564.333 848.5,560C 840.822,557.024 832.989,555.857 825,556.5C 823.11,563.267 820.443,569.6 817,575.5C 806.537,573.704 799.871,567.704 797,557.5C 794.399,543.258 796.899,530.091 804.5,518C 814.092,516.413 823.758,516.08 833.5,517C 837.276,517.592 840.943,518.592 844.5,520C 856.602,526.636 869.435,531.136 883,533.5C 884.764,533.456 886.431,533.122 888,532.5C 891.191,526.779 894.358,521.112 897.5,515.5 Z"/></g>
<g><path style="opacity:1" fill="#d8e6e8" d="M 1342.5,567.5 C 1347.1,567.2 1351.6,567.533 1356,568.5C 1356.67,573.167 1356.67,577.833 1356,582.5C 1355.12,585.102 1353.62,587.269 1351.5,589C 1339.73,593.102 1331.56,600.936 1327,612.5C 1322.27,632.628 1318.61,652.962 1316,673.5C 1311.94,687.787 1306.11,701.287 1298.5,714C 1302.13,721.834 1304.63,730.001 1306,738.5C 1306.33,751.5 1306.67,764.5 1307,777.5C 1308.18,783.746 1310.35,789.579 1313.5,795C 1318.64,795.537 1323.64,795.204 1328.5,794C 1338,803.016 1337.67,811.683 1327.5,820C 1316.33,827.724 1304,831.39 1290.5,831C 1281.37,828.2 1276.2,822.034 1275,812.5C 1274.67,794.5 1274.33,776.5 1274,758.5C 1273.61,751.888 1270.78,746.722 1265.5,743C 1260.53,742.854 1255.7,742.021 1251,740.5C 1249.28,740.611 1249.11,741.111 1250.5,742C 1249.83,742.667 1249.17,742.667 1248.5,742C 1247.37,737.587 1247.2,733.087 1248,728.5C 1249.12,726.376 1250.62,724.543 1252.5,723C 1259.27,718.194 1265.77,713.028 1272,707.5C 1278.32,699.232 1282.32,689.899 1284,679.5C 1285.78,659.693 1289.78,640.36 1296,621.5C 1303.38,604.129 1313.88,588.962 1327.5,576C 1332.27,572.619 1337.27,569.786 1342.5,567.5 Z"/></g>
<g><path style="opacity:1" fill="#d9e6e6" d="M 810.5,659.5 C 818.831,659.912 824.665,663.912 828,671.5C 827.65,681.779 830.316,691.113 836,699.5C 841.542,704.711 847.375,709.544 853.5,714C 867.769,722.606 881.769,731.606 895.5,741C 905.137,749.463 913.47,758.963 920.5,769.5C 930.276,770.301 939.943,771.801 949.5,774C 959.764,777.8 969.764,782.134 979.5,787C 986.724,789.364 994.058,789.864 1001.5,788.5C 1004.29,784.643 1005.79,780.309 1006,775.5C 1019.21,769.27 1027.54,773.27 1031,787.5C 1032.71,800.008 1031.05,812.008 1026,823.5C 1019.59,831.16 1011.42,833.66 1001.5,831C 988.169,826.111 975.169,820.445 962.5,814C 956.712,811.569 950.712,810.069 944.5,809.5C 941.705,809.453 939.039,809.953 936.5,811C 933.972,816.202 930.639,820.869 926.5,825C 929.028,825.669 929.028,826.502 926.5,827.5C 922.774,826.152 919.108,824.652 915.5,823C 914.299,822.097 913.465,820.931 913,819.5C 911.108,806.584 906.774,794.584 900,783.5C 895.801,778.966 891.301,774.799 886.5,771C 871.148,762.327 856.481,752.661 842.5,742C 825.034,726.2 812.867,707.033 806,684.5C 804.241,675.492 805.741,667.158 810.5,659.5 Z"/></g>
<g><path style="opacity:1" fill="#7ca5dc" d="M 561.5,802.5 C 567.678,802.107 573.678,802.94 579.5,805C 587.999,808.836 595.999,813.503 603.5,819C 675.345,873.166 734.845,938.333 782,1014.5C 779.29,1005.72 775.957,997.055 772,988.5C 750.145,941.111 725.478,895.444 698,851.5C 687.482,823.35 696.649,814.183 725.5,824C 749.986,831.511 771.152,844.345 789,862.5C 800.883,879.603 809.549,898.269 815,918.5C 825.07,959.786 833.403,1001.45 840,1043.5C 847.684,1072.9 855.684,1102.23 864,1131.5C 865.587,1137.09 866.254,1142.76 866,1148.5C 791.47,1076.3 716.637,1004.47 641.5,933C 613.305,904.472 584.805,876.305 556,848.5C 550.672,843.162 547.005,836.828 545,829.5C 543.327,816.026 548.827,807.026 561.5,802.5 Z"/></g>
<g><path style="opacity:1" fill="#7ca5dc" d="M 1735.5,802.5 C 1744.72,801.193 1751.55,804.526 1756,812.5C 1757.97,823.616 1755.97,833.949 1750,843.5C 1653.75,939.421 1556.58,1034.25 1458.5,1128C 1451,1134.17 1443.5,1140.33 1436,1146.5C 1442.64,1119.93 1449.31,1093.26 1456,1066.5C 1465.92,1020.25 1475.58,973.914 1485,927.5C 1493.62,894.584 1510.12,866.417 1534.5,843C 1546.64,833.094 1560.31,826.094 1575.5,822C 1584.01,820.886 1592.34,821.552 1600.5,824C 1605.93,826.189 1608.59,830.189 1608.5,836C 1606.57,846.031 1603.07,855.531 1598,864.5C 1576.48,898.86 1556.48,934.193 1538,970.5C 1535,977.833 1532,985.167 1529,992.5C 1527.47,995.72 1526.81,999.053 1527,1002.5C 1543.61,978.886 1560.61,955.553 1578,932.5C 1612.37,893.455 1649.87,857.955 1690.5,826C 1704.15,815.507 1719.15,807.674 1735.5,802.5 Z"/></g>
<g><path style="opacity:1" fill="#3d6f88" d="M 1814.5,854.5 C 1829.52,852.427 1840.36,858.093 1847,871.5C 1848.05,880.036 1846.38,888.036 1842,895.5C 1837.72,902.115 1833.05,908.448 1828,914.5C 1760.27,989.879 1695.94,1067.88 1635,1148.5C 1586.31,1217.17 1542.64,1289.17 1504,1364.5C 1480.83,1411.51 1457.16,1458.18 1433,1504.5C 1429.67,1512.17 1429.67,1519.83 1433,1527.5C 1452.17,1560.51 1470.84,1593.84 1489,1627.5C 1490.43,1630.35 1491.26,1633.35 1491.5,1636.5C 1414.07,1661.75 1336.74,1687.42 1259.5,1713.5C 1252.79,1705.61 1246.62,1697.28 1241,1688.5C 1219.75,1651.66 1198.75,1614.66 1178,1577.5C 1171.67,1567.5 1165.33,1557.5 1159,1547.5C 1157.29,1544.74 1155.12,1542.41 1152.5,1540.5C 1145.74,1547.43 1139.91,1555.1 1135,1563.5C 1113.08,1601.67 1091.41,1640 1070,1678.5C 1062.95,1690.88 1055.12,1702.71 1046.5,1714C 1045.17,1714.67 1043.83,1714.67 1042.5,1714C 966.5,1688.67 890.5,1663.33 814.5,1638C 813.402,1635.5 813.568,1633 815,1630.5C 832.629,1593.91 852.296,1558.58 874,1524.5C 876.033,1519.05 875.7,1513.72 873,1508.5C 837.823,1441.48 803.156,1374.15 769,1306.5C 730.897,1235.44 686.897,1168.44 637,1105.5C 596,1055.83 555,1006.17 514,956.5C 493.636,937.486 476.303,916.152 462,892.5C 457.465,882.753 457.465,873.087 462,863.5C 466.522,857.989 472.356,855.323 479.5,855.5C 496.839,857.891 513.173,863.391 528.5,872C 602.463,916.921 669.796,970.587 730.5,1033C 760.798,1059.63 790.798,1086.63 820.5,1114C 847.539,1139.03 872.373,1165.86 895,1194.5C 908.131,1211.66 918.798,1230.33 927,1250.5C 929.534,1260.3 932.534,1269.97 936,1279.5C 944.053,1290.69 954.886,1294.69 968.5,1291.5C 980.371,1273.64 985.205,1253.97 983,1232.5C 981.6,1219.57 978.933,1206.9 975,1194.5C 965.786,1167.52 955.786,1140.86 945,1114.5C 939.566,1099.87 935.566,1084.87 933,1069.5C 932.169,1061.81 932.335,1054.15 933.5,1046.5C 942.442,1037.19 953.109,1030.69 965.5,1027C 975.976,1026.04 985.643,1028.37 994.5,1034C 1015.07,1050.63 1031.23,1070.8 1043,1094.5C 1060.64,1129.12 1076.64,1164.45 1091,1200.5C 1110.33,1251.83 1129.67,1303.17 1149,1354.5C 1150.02,1357.21 1151.52,1359.54 1153.5,1361.5C 1173.76,1307.88 1193.93,1254.22 1214,1200.5C 1230.59,1155.98 1250.93,1113.31 1275,1072.5C 1285.47,1056.03 1298.63,1042.2 1314.5,1031C 1327.69,1024.73 1340.69,1025.06 1353.5,1032C 1359.54,1036.36 1365.21,1041.19 1370.5,1046.5C 1371.8,1060.11 1370.3,1073.45 1366,1086.5C 1354.87,1121.55 1343.54,1156.55 1332,1191.5C 1327.8,1207.04 1324.13,1222.71 1321,1238.5C 1319.89,1250.62 1320.56,1262.62 1323,1274.5C 1329.83,1289.5 1341.33,1295.33 1357.5,1292C 1359.62,1290.88 1361.46,1289.38 1363,1287.5C 1369.06,1273.33 1374.73,1258.99 1380,1244.5C 1386.48,1229.52 1394.48,1215.52 1404,1202.5C 1422.27,1177.55 1442.77,1154.38 1465.5,1133C 1518.34,1086.5 1569.68,1038.16 1619.5,988C 1633.87,975.291 1648.54,962.957 1663.5,951C 1696.22,926.613 1729.22,902.613 1762.5,879C 1778.5,867.833 1795.83,859.666 1814.5,854.5 Z"/></g>
<g><path style="opacity:1" fill="#fbfcfb" d="M 265.5,1607.5 C 258.167,1608.17 250.833,1608.83 243.5,1609.5C 229.496,1609.33 215.496,1609.5 201.5,1610C 190.928,1617.87 180.095,1625.37 169,1632.5C 165.625,1626.92 162.125,1621.42 158.5,1616C 169.929,1608.54 181.096,1600.7 192,1592.5C 200.563,1572.37 209.397,1552.37 218.5,1532.5C 223.236,1538.29 227.236,1544.62 230.5,1551.5C 224.5,1564.5 218.5,1577.5 212.5,1590.5C 226.821,1591.03 241.154,1591.2 255.5,1591C 259.059,1596.39 262.392,1601.89 265.5,1607.5 Z"/></g>
<g><path style="opacity:1" fill="#fafbfa" d="M 2052.5,1568.5 C 2085.18,1575.56 2117.85,1582.73 2150.5,1590C 2150.96,1590.41 2151.29,1590.91 2151.5,1591.5C 2148.29,1596.75 2144.96,1601.92 2141.5,1607C 2133.8,1606.16 2126.13,1605.16 2118.5,1604C 2112,1613.83 2105.5,1623.67 2099,1633.5C 2098.33,1634.83 2098.33,1636.17 2099,1637.5C 2102.8,1643.6 2106.97,1649.43 2111.5,1655C 2107.67,1660.83 2103.83,1666.67 2100,1672.5C 2081,1644.17 2062,1615.83 2043,1587.5C 2042.33,1586.5 2042.33,1585.5 2043,1584.5C 2046.44,1579.28 2049.61,1573.94 2052.5,1568.5 Z"/></g>
<g><path style="opacity:1" fill="#0e600b" d="M 2066.5,1591.5 C 2066.74,1590.9 2067.24,1590.57 2068,1590.5C 2079.24,1593.27 2090.41,1596.27 2101.5,1599.5C 2097.2,1606.97 2092.7,1614.3 2088,1621.5C 2081.06,1611.26 2073.89,1601.26 2066.5,1591.5 Z"/></g>
<g><path style="opacity:1" fill="#acc9ab" d="M 265.5,1607.5 C 266.043,1607.56 266.376,1607.89 266.5,1608.5C 258.862,1609.5 251.196,1609.83 243.5,1609.5C 250.833,1608.83 258.167,1608.17 265.5,1607.5 Z"/></g>
<g><path style="opacity:1" fill="#fafbfa" d="M 2018.5,1621.5 C 2044.08,1640.4 2069.41,1659.73 2094.5,1679.5C 2090.86,1684.97 2087.03,1690.31 2083,1695.5C 2058.1,1675.64 2032.94,1656.14 2007.5,1637C 2011.3,1631.89 2014.97,1626.73 2018.5,1621.5 Z"/></g>
<g><path style="opacity:1" fill="#fafbfa" d="M 275.5,1625.5 C 276.978,1625.24 278.311,1625.57 279.5,1626.5C 283.167,1631.83 286.833,1637.17 290.5,1642.5C 272.833,1672.5 255.167,1702.5 237.5,1732.5C 233.254,1727.01 229.254,1721.34 225.5,1715.5C 229.5,1708.83 233.5,1702.17 237.5,1695.5C 230.311,1684.44 222.645,1673.78 214.5,1663.5C 207.328,1666.29 199.995,1668.12 192.5,1669C 188.71,1663.92 185.044,1658.75 181.5,1653.5C 212.995,1644.33 244.328,1635 275.5,1625.5 Z"/></g>
<g><path style="opacity:1" fill="#12620e" d="M 264.5,1647.5 C 266.028,1647.52 266.528,1648.18 266,1649.5C 259.735,1659.71 253.235,1669.71 246.5,1679.5C 241.378,1672.76 236.378,1665.92 231.5,1659C 242.527,1655.05 253.527,1651.21 264.5,1647.5 Z"/></g>
<g><path style="opacity:1" fill="#fafbfa" d="M 302.5,1658.5 C 307.993,1663.64 312.66,1669.48 316.5,1676C 311.857,1690.09 307.523,1704.26 303.5,1718.5C 316.989,1715.88 330.489,1713.21 344,1710.5C 349.624,1715.63 354.79,1721.3 359.5,1727.5C 338.144,1730.84 316.811,1734.34 295.5,1738C 285.965,1747.2 276.132,1756.04 266,1764.5C 261.833,1759.67 257.667,1754.83 253.5,1750C 263.521,1740.64 273.521,1731.31 283.5,1722C 289.608,1700.73 295.941,1679.56 302.5,1658.5 Z"/></g>
<g><path style="opacity:1" fill="#fafbfa" d="M 1995.5,1660.5 C 2001.24,1660.21 2006.91,1660.71 2012.5,1662C 2015.39,1662.94 2017.73,1664.61 2019.5,1667C 2015.72,1672.06 2012.05,1677.23 2008.5,1682.5C 1999.85,1677.47 1992.68,1679.14 1987,1687.5C 1984.07,1691.36 1982.24,1695.7 1981.5,1700.5C 1982.13,1706.63 1985.46,1709.13 1991.5,1708C 2001.05,1702.44 2010.05,1696.11 2018.5,1689C 2036.81,1679.07 2050.98,1683.24 2061,1701.5C 2064.23,1713.26 2062.56,1724.26 2056,1734.5C 2050.07,1743.77 2042.24,1750.93 2032.5,1756C 2021.5,1759.3 2011.5,1757.47 2002.5,1750.5C 2005.75,1745 2009.25,1739.66 2013,1734.5C 2027.72,1741.32 2038.05,1736.99 2044,1721.5C 2046.78,1712.4 2043.78,1706.4 2035,1703.5C 2033.37,1703.63 2031.87,1704.13 2030.5,1705C 2021.83,1711.33 2013.17,1717.67 2004.5,1724C 1988.16,1732.44 1975.66,1728.61 1967,1712.5C 1964.31,1702.75 1965.31,1693.42 1970,1684.5C 1976.15,1673.84 1984.65,1665.84 1995.5,1660.5 Z"/></g>
<g><path style="opacity:1" fill="#fbfcfb" d="M 1946.5,1711.5 C 1951.09,1714.41 1955.09,1718.08 1958.5,1722.5C 1947.34,1735.49 1936.01,1748.33 1924.5,1761C 1928.95,1766.46 1933.79,1771.62 1939,1776.5C 1949.13,1764.7 1959.63,1753.2 1970.5,1742C 1971.17,1741.33 1971.83,1741.33 1972.5,1742C 1975.67,1745.17 1978.83,1748.33 1982,1751.5C 1982.67,1752.17 1982.67,1752.83 1982,1753.5C 1971.13,1764.7 1960.63,1776.2 1950.5,1788C 1956.17,1793.67 1961.83,1799.33 1967.5,1805C 1968.64,1805.75 1969.64,1805.58 1970.5,1804.5C 1982.18,1791.98 1993.68,1779.32 2005,1766.5C 2008.83,1770.33 2012.67,1774.17 2016.5,1778C 2000.51,1796.16 1984.17,1813.99 1967.5,1831.5C 1944.68,1809.18 1922.01,1786.68 1899.5,1764C 1915.06,1746.37 1930.72,1728.87 1946.5,1711.5 Z"/></g>
<g><path style="opacity:1" fill="#fbfcfb" d="M 370.5,1741.5 C 376.659,1745.49 381.659,1750.66 385.5,1757C 372.414,1789.34 358.914,1821.51 345,1853.5C 339.529,1848.87 335.029,1843.54 331.5,1837.5C 334.222,1830.39 337.222,1823.39 340.5,1816.5C 331.472,1807.14 322.472,1797.81 313.5,1788.5C 306.736,1792.25 299.736,1795.08 292.5,1797C 287.799,1792.63 283.466,1787.97 279.5,1783C 309.924,1769.12 340.257,1755.28 370.5,1741.5 Z"/></g>
<g><path style="opacity:1" fill="#0f600b" d="M 360.5,1765.5 C 361.376,1765.37 362.043,1765.7 362.5,1766.5C 357.769,1777.63 352.769,1788.63 347.5,1799.5C 340.983,1793.82 334.983,1787.65 329.5,1781C 340.173,1776.33 350.506,1771.16 360.5,1765.5 Z"/></g>
<g><path style="opacity:1" fill="#fafbfa" d="M 1889.5,1773.5 C 1910.93,1797.44 1931.93,1821.94 1952.5,1847C 1947.95,1851.89 1943.11,1856.39 1938,1860.5C 1915.19,1852.89 1892.36,1845.73 1869.5,1839C 1882.65,1854.98 1895.98,1870.81 1909.5,1886.5C 1905.79,1891.21 1901.46,1895.21 1896.5,1898.5C 1875.68,1874.17 1855.01,1849.67 1834.5,1825C 1839.07,1820.47 1843.91,1816.31 1849,1812.5C 1872.07,1820.3 1895.24,1827.47 1918.5,1834C 1904.48,1818.11 1890.81,1801.94 1877.5,1785.5C 1881.83,1781.84 1885.83,1777.84 1889.5,1773.5 Z"/></g>
<g><path style="opacity:1" fill="#e6252b" d="M 1025.5,1775.5 C 1028.05,1775.56 1029.55,1776.89 1030,1779.5C 1049.12,1824.4 1068.78,1869.07 1089,1913.5C 1092.15,1920.82 1097.65,1924.82 1105.5,1925.5C 1105.5,1926.83 1105.5,1928.17 1105.5,1929.5C 1081.17,1929.5 1056.83,1929.5 1032.5,1929.5C 1032.5,1928.17 1032.5,1926.83 1032.5,1925.5C 1037.25,1925.73 1041.91,1925.23 1046.5,1924C 1050.21,1921.49 1051.38,1917.99 1050,1913.5C 1046.33,1904.83 1042.67,1896.17 1039,1887.5C 1021.24,1886.34 1003.41,1886.17 985.5,1887C 980.764,1895.14 977.431,1903.8 975.5,1913C 975.732,1918.47 978.398,1922.14 983.5,1924C 987.418,1925.16 991.418,1925.66 995.5,1925.5C 995.5,1926.83 995.5,1928.17 995.5,1929.5C 978.833,1929.5 962.167,1929.5 945.5,1929.5C 945.238,1928.02 945.571,1926.69 946.5,1925.5C 952.515,1924.41 957.348,1921.41 961,1916.5C 983.556,1870 1005.06,1823 1025.5,1775.5 Z"/></g>
<g><path style="opacity:1" fill="#e6252b" d="M 1123.5,1932.5 C 1122.5,1932.5 1121.5,1932.5 1120.5,1932.5C 1120.5,1913.83 1120.5,1895.17 1120.5,1876.5C 1121.5,1876.5 1122.5,1876.5 1123.5,1876.5C 1127.05,1895.11 1136.72,1909.61 1152.5,1920C 1163.86,1926.44 1175.53,1927.1 1187.5,1922C 1200.81,1912.62 1202.98,1901.12 1194,1887.5C 1190.12,1883.95 1185.95,1880.78 1181.5,1878C 1169.25,1872.07 1157.25,1865.74 1145.5,1859C 1131.99,1851.16 1123.49,1839.66 1120,1824.5C 1119.1,1799.06 1130.93,1782.9 1155.5,1776C 1164.95,1775.04 1174.29,1775.71 1183.5,1778C 1190.08,1780.79 1196.74,1783.29 1203.5,1785.5C 1204.89,1785.38 1206.23,1785.05 1207.5,1784.5C 1209.02,1781.96 1210.35,1779.29 1211.5,1776.5C 1212.32,1775.61 1213.32,1775.28 1214.5,1775.5C 1215.12,1792.16 1215.46,1808.83 1215.5,1825.5C 1214.02,1825.76 1212.69,1825.43 1211.5,1824.5C 1206.36,1800.36 1191.7,1786.69 1167.5,1783.5C 1157.32,1783.33 1149.82,1787.67 1145,1796.5C 1142.65,1803.36 1143.65,1809.69 1148,1815.5C 1151.56,1819.02 1155.39,1822.19 1159.5,1825C 1171.01,1831.26 1182.68,1837.26 1194.5,1843C 1203.55,1848.05 1211.38,1854.55 1218,1862.5C 1231.9,1891.79 1224.4,1913.96 1195.5,1929C 1184.07,1932.35 1172.4,1933.35 1160.5,1932C 1152.05,1929.03 1143.55,1926.19 1135,1923.5C 1129.69,1924.73 1125.85,1927.73 1123.5,1932.5 Z"/></g>
<g><path style="opacity:1" fill="#e94a4f" d="M 916.5,1779.5 C 931.658,1778.5 946.991,1778.17 962.5,1778.5C 962.768,1780.1 962.434,1781.43 961.5,1782.5C 961.5,1781.5 961.5,1780.5 961.5,1779.5C 946.5,1779.5 931.5,1779.5 916.5,1779.5 Z"/></g>
<g><path style="opacity:1" fill="#e9464d" d="M 1314.5,1779.5 C 1289.83,1779.5 1265.17,1779.5 1240.5,1779.5C 1240.5,1780.5 1240.5,1781.5 1240.5,1782.5C 1239.57,1781.43 1239.23,1780.1 1239.5,1778.5C 1264.67,1778.17 1289.67,1778.5 1314.5,1779.5 Z"/></g>
<g><path style="opacity:1" fill="#e9484e" d="M 1406.5,1779.5 C 1387.17,1779.5 1367.83,1779.5 1348.5,1779.5C 1348.5,1780.5 1348.5,1781.5 1348.5,1782.5C 1347.57,1781.43 1347.23,1780.1 1347.5,1778.5C 1367.34,1778.17 1387.01,1778.5 1406.5,1779.5 Z"/></g>
<g><path style="opacity:1" fill="#e6232a" d="M 916.5,1779.5 C 931.5,1779.5 946.5,1779.5 961.5,1779.5C 961.5,1780.5 961.5,1781.5 961.5,1782.5C 953.647,1783.51 947.814,1787.51 944,1794.5C 929.667,1818.5 915.333,1842.5 901,1866.5C 900.333,1883.17 900.333,1899.83 901,1916.5C 902.5,1920.67 905.333,1923.5 909.5,1925C 914.489,1925.5 919.489,1925.67 924.5,1925.5C 924.5,1926.83 924.5,1928.17 924.5,1929.5C 896.5,1929.5 868.5,1929.5 840.5,1929.5C 840.5,1928.17 840.5,1926.83 840.5,1925.5C 847.582,1926.36 854.249,1925.19 860.5,1922C 861.46,1920.58 862.293,1919.08 863,1917.5C 864.617,1902.57 864.951,1887.57 864,1872.5C 849.173,1844.84 833.84,1817.51 818,1790.5C 814.301,1785.07 809.135,1782.4 802.5,1782.5C 802.5,1781.17 802.5,1779.83 802.5,1778.5C 826.5,1778.5 850.5,1778.5 874.5,1778.5C 874.5,1779.83 874.5,1781.17 874.5,1782.5C 868.961,1781.64 864.128,1782.97 860,1786.5C 860.77,1792.81 862.77,1798.81 866,1804.5C 876,1822.5 886,1840.5 896,1858.5C 908.773,1837.96 920.773,1816.96 932,1795.5C 932.667,1792.83 932.667,1790.17 932,1787.5C 927.691,1784.43 922.858,1782.76 917.5,1782.5C 916.614,1781.68 916.281,1780.68 916.5,1779.5 Z"/></g>
<g><path style="opacity:1" fill="#e6252b" d="M 1314.5,1779.5 C 1314.5,1780.5 1314.5,1781.5 1314.5,1782.5C 1307.21,1781.64 1301.71,1784.31 1298,1790.5C 1297.33,1810.5 1297.33,1830.5 1298,1850.5C 1319.89,1833.55 1341.22,1815.88 1362,1797.5C 1366.04,1791.92 1365.21,1787.42 1359.5,1784C 1355.89,1783.06 1352.22,1782.56 1348.5,1782.5C 1348.5,1781.5 1348.5,1780.5 1348.5,1779.5C 1367.83,1779.5 1387.17,1779.5 1406.5,1779.5C 1406.5,1780.5 1406.5,1781.5 1406.5,1782.5C 1399.72,1782.59 1393.72,1784.76 1388.5,1789C 1368.69,1804.64 1349.02,1820.48 1329.5,1836.5C 1349.33,1861.5 1369.17,1886.5 1389,1911.5C 1394.33,1917.16 1400.49,1921.66 1407.5,1925C 1409.47,1925.5 1411.47,1925.66 1413.5,1925.5C 1413.5,1926.83 1413.5,1928.17 1413.5,1929.5C 1387.5,1929.5 1361.5,1929.5 1335.5,1929.5C 1335.5,1928.17 1335.5,1926.83 1335.5,1925.5C 1339.82,1925.46 1343.66,1924.13 1347,1921.5C 1347.67,1919.83 1347.67,1918.17 1347,1916.5C 1344.08,1910.32 1340.41,1904.66 1336,1899.5C 1324.99,1885.66 1313.83,1872 1302.5,1858.5C 1301.09,1859.62 1299.59,1860.62 1298,1861.5C 1297.33,1880.17 1297.33,1898.83 1298,1917.5C 1301.98,1924.07 1307.81,1926.74 1315.5,1925.5C 1315.5,1926.83 1315.5,1928.17 1315.5,1929.5C 1290.17,1929.5 1264.83,1929.5 1239.5,1929.5C 1239.5,1928.17 1239.5,1926.83 1239.5,1925.5C 1244.27,1925.81 1248.93,1925.31 1253.5,1924C 1256.33,1922.5 1258.5,1920.33 1260,1917.5C 1260.67,1875.17 1260.67,1832.83 1260,1790.5C 1255.35,1783.66 1248.85,1781 1240.5,1782.5C 1240.5,1781.5 1240.5,1780.5 1240.5,1779.5C 1265.17,1779.5 1289.83,1779.5 1314.5,1779.5 Z"/></g>
<g><path style="opacity:1" fill="#e6222a" d="M 1416.5,1778.5 C 1442.5,1778.5 1468.5,1778.5 1494.5,1778.5C 1494.5,1779.83 1494.5,1781.17 1494.5,1782.5C 1487.47,1781.35 1481.3,1783.02 1476,1787.5C 1475.33,1788.83 1474.67,1790.17 1474,1791.5C 1473.33,1833.17 1473.33,1874.83 1474,1916.5C 1478.34,1924.75 1485.18,1927.75 1494.5,1925.5C 1494.5,1926.83 1494.5,1928.17 1494.5,1929.5C 1468.5,1929.5 1442.5,1929.5 1416.5,1929.5C 1416.5,1928.17 1416.5,1926.83 1416.5,1925.5C 1422.6,1926.27 1428.27,1925.1 1433.5,1922C 1435.07,1919.7 1436.24,1917.2 1437,1914.5C 1437.67,1873.83 1437.67,1833.17 1437,1792.5C 1435.93,1788.43 1433.43,1785.59 1429.5,1784C 1425.27,1782.71 1420.94,1782.21 1416.5,1782.5C 1416.5,1781.17 1416.5,1779.83 1416.5,1778.5 Z"/></g>
<g><path style="opacity:1" fill="#fafbfa" d="M 413.5,1795.5 C 420.655,1794.83 427.322,1796.33 433.5,1800C 445.398,1807.22 453.564,1817.39 458,1830.5C 458.891,1839.49 456.724,1847.66 451.5,1855C 450.833,1855.67 450.167,1855.67 449.5,1855C 445.292,1850.62 440.959,1846.46 436.5,1842.5C 440.163,1836.55 440.33,1830.55 437,1824.5C 432.887,1818.38 427.221,1814.71 420,1813.5C 417.127,1813.6 415.127,1814.93 414,1817.5C 413.333,1820.17 413.333,1822.83 414,1825.5C 420.269,1836.37 426.269,1847.37 432,1858.5C 436.171,1873.32 432.004,1885.16 419.5,1894C 405.84,1900.15 393.507,1898.15 382.5,1888C 373.179,1880.52 367.012,1871.02 364,1859.5C 363.006,1849.14 365.673,1839.81 372,1831.5C 376.688,1835.69 381.521,1839.69 386.5,1843.5C 378.919,1859.01 382.919,1870.51 398.5,1878C 408.85,1879.97 414.017,1875.8 414,1865.5C 408.333,1855.17 402.667,1844.83 397,1834.5C 390.51,1816.17 396.01,1803.17 413.5,1795.5 Z"/></g>
<g><path style="opacity:1" fill="#f3f2f0" d="M 1011.5,1827.5 C 1013.47,1829.43 1014.97,1831.76 1016,1834.5C 1022.04,1848.74 1028.2,1862.91 1034.5,1877C 1019.5,1877.67 1004.5,1877.67 989.5,1877C 996.974,1860.55 1004.31,1844.05 1011.5,1827.5 Z"/></g>
<g><path style="opacity:1" fill="#fbfcfb" d="M 1809.5,1846.5 C 1831.17,1844.58 1847.67,1852.92 1859,1871.5C 1874,1896.03 1871.17,1918.2 1850.5,1938C 1830.85,1953.64 1811.52,1953.3 1792.5,1937C 1783.51,1927.33 1777.01,1916.16 1773,1903.5C 1769.36,1883.73 1775.53,1867.9 1791.5,1856C 1797.15,1852.01 1803.15,1848.84 1809.5,1846.5 Z"/></g>
<g><path style="opacity:1" fill="#fafcfa" d="M 497.5,1857.5 C 503.438,1861.43 509.105,1865.77 514.5,1870.5C 505.833,1904.5 497.167,1938.5 488.5,1972.5C 483.975,1968.81 479.308,1965.31 474.5,1962C 473.426,1961.26 472.759,1960.26 472.5,1959C 474.401,1951.8 476.401,1944.63 478.5,1937.5C 468.813,1929.15 458.813,1921.15 448.5,1913.5C 441.993,1917.59 435.66,1921.92 429.5,1926.5C 423.985,1922.57 418.652,1918.41 413.5,1914C 441.677,1895.3 469.677,1876.47 497.5,1857.5 Z"/></g>
<g><path style="opacity:1" fill="#095e06" d="M 1810.5,1864.5 C 1818.31,1863.38 1825.31,1865.21 1831.5,1870C 1844.09,1880.67 1849.92,1894.17 1849,1910.5C 1844.63,1924.54 1835.13,1931.04 1820.5,1930C 1806.23,1924.39 1796.73,1914.23 1792,1899.5C 1788.18,1882.48 1794.34,1870.81 1810.5,1864.5 Z"/></g>
<g><path style="opacity:1" fill="#eb7276" d="M 1123.5,1876.5 C 1122.5,1876.5 1121.5,1876.5 1120.5,1876.5C 1120.5,1895.17 1120.5,1913.83 1120.5,1932.5C 1121.5,1932.5 1122.5,1932.5 1123.5,1932.5C 1122.43,1933.43 1121.1,1933.77 1119.5,1933.5C 1119.5,1914.17 1119.5,1894.83 1119.5,1875.5C 1121.1,1875.23 1122.43,1875.57 1123.5,1876.5 Z"/></g>
<g><path style="opacity:1" fill="#0f600b" d="M 491.5,1882.5 C 492.376,1882.37 493.043,1882.7 493.5,1883.5C 489.696,1895.38 486.196,1907.38 483,1919.5C 476.185,1914.51 469.685,1909.18 463.5,1903.5C 472.863,1896.49 482.196,1889.49 491.5,1882.5 Z"/></g>
<g><path style="opacity:0.02" fill="#5a8a58" d="M 314.5,1892.5 C 323.446,1899.78 331.779,1907.78 339.5,1916.5C 330.554,1909.22 322.221,1901.22 314.5,1892.5 Z"/></g>
<g><path style="opacity:1" fill="#fbfcfb" d="M 562.5,1903.5 C 562.333,1929.17 562.5,1954.84 563,1980.5C 563.513,1979.47 564.013,1978.47 564.5,1977.5C 574.989,1959.86 585.489,1942.19 596,1924.5C 600.696,1928.03 605.529,1931.36 610.5,1934.5C 594.252,1962.66 577.752,1990.66 561,2018.5C 555.854,2014.69 550.688,2011.02 545.5,2007.5C 545.667,1982.5 545.5,1957.5 545,1932.5C 544.283,1933.04 543.783,1933.71 543.5,1934.5C 533.194,1951.82 522.861,1969.15 512.5,1986.5C 507.5,1983.33 502.5,1980.17 497.5,1977C 513.793,1949.58 529.959,1922.08 546,1894.5C 546.718,1893.55 547.551,1893.38 548.5,1894C 553.406,1896.94 558.072,1900.11 562.5,1903.5 Z"/></g>
<g><path style="opacity:1" fill="#fafbfa" d="M 1734.5,1903.5 C 1749.75,1903.21 1761.91,1909.21 1771,1921.5C 1776.11,1928.71 1780.44,1936.38 1784,1944.5C 1791.25,1964.74 1786.42,1981.24 1769.5,1994C 1757.91,2001.38 1746.41,2008.88 1735,2016.5C 1718.7,1988.73 1702.53,1960.9 1686.5,1933C 1686.76,1931.74 1687.43,1930.74 1688.5,1930C 1697.83,1924 1707.17,1918 1716.5,1912C 1722.21,1908.31 1728.21,1905.48 1734.5,1903.5 Z"/></g>
<g><path style="opacity:1" fill="#085e06" d="M 1732.5,1922.5 C 1738.82,1921.66 1744.48,1923.16 1749.5,1927C 1761.63,1939.08 1767.8,1953.58 1768,1970.5C 1765.92,1974.58 1763.09,1978.08 1759.5,1981C 1754,1984.5 1748.5,1988 1743,1991.5C 1731.97,1973.3 1721.13,1954.96 1710.5,1936.5C 1717.56,1931.31 1724.89,1926.64 1732.5,1922.5 Z"/></g>
<g><path style="opacity:1" fill="#fafbfa" d="M 1674.5,1939.5 C 1676.69,1940.82 1678.19,1942.82 1679,1945.5C 1691.56,1972.95 1704.39,2000.29 1717.5,2027.5C 1711.99,2030.75 1706.32,2033.75 1700.5,2036.5C 1680.2,2023.36 1660.03,2010.03 1640,1996.5C 1648.37,2015.75 1657.2,2034.92 1666.5,2054C 1661.5,2056.83 1656.5,2059.67 1651.5,2062.5C 1637.11,2033.55 1623.11,2004.38 1609.5,1975C 1614.31,1971.09 1619.64,1967.92 1625.5,1965.5C 1645.85,1979.49 1666.51,1992.65 1687.5,2005C 1678.64,1986.12 1669.64,1967.29 1660.5,1948.5C 1660.98,1947.52 1661.64,1946.69 1662.5,1946C 1666.72,1944.06 1670.72,1941.89 1674.5,1939.5 Z"/></g>
<g><path style="opacity:1" fill="#fafbfa" d="M 656.5,1965.5 C 673.366,1965.18 687.533,1971.18 699,1983.5C 705.323,1993.35 706.157,2003.69 701.5,2014.5C 695.802,2011.65 690.136,2008.82 684.5,2006C 687.232,1997.8 684.899,1991.46 677.5,1987C 671.842,1983.21 665.842,1982.21 659.5,1984C 655.674,1988.29 655.507,1992.79 659,1997.5C 667.637,2005.14 675.97,2013.14 684,2021.5C 693.455,2036.2 692.288,2050.04 680.5,2063C 669.524,2070.53 657.858,2071.53 645.5,2066C 631.882,2060.72 622.716,2051.22 618,2037.5C 617.171,2030.77 617.504,2024.1 619,2017.5C 619.308,2016.69 619.808,2016.03 620.5,2015.5C 625.646,2018.08 630.979,2020.08 636.5,2021.5C 633.643,2038.81 640.809,2048.81 658,2051.5C 671.287,2049.28 674.287,2042.62 667,2031.5C 657,2024.17 648.333,2015.5 641,2005.5C 633.669,1987.18 638.836,1973.85 656.5,1965.5 Z"/></g>
<g><path style="opacity:1" fill="#377d36" d="M 562.5,1903.5 C 563.167,1928.17 563.833,1952.83 564.5,1977.5C 564.013,1978.47 563.513,1979.47 563,1980.5C 562.5,1954.84 562.333,1929.17 562.5,1903.5 Z"/></g>
<g><path style="opacity:1" fill="#579256" d="M 545.5,2007.5 C 544.833,1983.17 544.167,1958.83 543.5,1934.5C 543.783,1933.71 544.283,1933.04 545,1932.5C 545.5,1957.5 545.667,1982.5 545.5,2007.5 Z"/></g>
<g><path style="opacity:1" fill="#fafbfa" d="M 1593.5,1980.5 C 1595.12,1980.36 1596.29,1981.03 1597,1982.5C 1609.17,2011.5 1621.33,2040.5 1633.5,2069.5C 1628.32,2072.96 1622.82,2075.96 1617,2078.5C 1603.91,2048.65 1591.08,2018.65 1578.5,1988.5C 1583.69,1986.07 1588.69,1983.41 1593.5,1980.5 Z"/></g>
<g><path style="opacity:1" fill="#fafbfa" d="M 725.5,1993.5 C 731.782,1995.32 737.782,1997.82 743.5,2001C 732.204,2029.76 721.037,2058.6 710,2087.5C 709.477,2089.22 708.477,2090.56 707,2091.5C 701.297,2089.38 695.797,2086.88 690.5,2084C 702.464,2053.94 714.131,2023.77 725.5,1993.5 Z"/></g>
<g><path style="opacity:1" fill="#fafbfa" d="M 754.5,2007.5 C 763.474,2010.07 772.308,2013.07 781,2016.5C 779.791,2039.5 778.791,2062.5 778,2085.5C 790,2066.17 802,2046.83 814,2027.5C 822.592,2031.2 831.425,2034.2 840.5,2036.5C 830.524,2067.74 820.858,2099.07 811.5,2130.5C 805.763,2129.03 800.097,2127.37 794.5,2125.5C 801.793,2101.46 808.96,2077.46 816,2053.5C 803.035,2075.45 789.702,2097.12 776,2118.5C 770.495,2116.89 765.162,2114.89 760,2112.5C 761.333,2087.17 762.667,2061.83 764,2036.5C 756.516,2059.95 748.85,2083.28 741,2106.5C 735.92,2104.7 730.92,2102.7 726,2100.5C 734.714,2069.33 744.214,2038.33 754.5,2007.5 Z"/></g>
<g><path style="opacity:1" fill="#fafbfa" d="M 1510.5,2015.5 C 1512.9,2015.39 1514.74,2016.39 1516,2018.5C 1537.02,2044.02 1557.86,2069.69 1578.5,2095.5C 1572.54,2098.32 1566.37,2100.65 1560,2102.5C 1554.65,2096.43 1549.32,2090.43 1544,2084.5C 1532.63,2088.94 1521.13,2092.94 1509.5,2096.5C 1509.67,2104.51 1509.5,2112.51 1509,2120.5C 1503.08,2123.03 1497.08,2125.36 1491,2127.5C 1491.29,2092.16 1492.12,2056.83 1493.5,2021.5C 1499.53,2020.27 1505.2,2018.27 1510.5,2015.5 Z"/></g>
<g><path style="opacity:1" fill="#fafbfa" d="M 1458.5,2034.5 C 1460.5,2034.5 1462.5,2034.5 1464.5,2034.5C 1465.76,2040.11 1466.26,2045.77 1466,2051.5C 1454.11,2076.26 1443.11,2101.26 1433,2126.5C 1449.97,2121.44 1467.13,2117.1 1484.5,2113.5C 1485.07,2118.25 1486.07,2122.92 1487.5,2127.5C 1487.18,2128.65 1486.52,2129.48 1485.5,2130C 1462.07,2135.52 1438.74,2141.36 1415.5,2147.5C 1413.36,2146.58 1412.2,2144.91 1412,2142.5C 1411.15,2138.12 1410.48,2133.79 1410,2129.5C 1420.56,2105.38 1431.39,2081.38 1442.5,2057.5C 1429.03,2059.57 1415.53,2062.57 1402,2066.5C 1401.23,2066.36 1400.56,2066.02 1400,2065.5C 1399.4,2061.29 1398.57,2057.12 1397.5,2053C 1397.83,2052.17 1398.17,2051.33 1398.5,2050.5C 1418.6,2045.14 1438.6,2039.81 1458.5,2034.5 Z"/></g>
<g><path style="opacity:1" fill="#fafbfa" d="M 851.5,2040.5 C 869.354,2044.21 887.021,2048.71 904.5,2054C 917.127,2059.75 922.627,2069.58 921,2083.5C 917.545,2099.95 907.378,2107.78 890.5,2107C 894.528,2110.89 897.694,2115.39 900,2120.5C 904.542,2132.29 908.375,2144.29 911.5,2156.5C 904.167,2154.83 896.833,2153.17 889.5,2151.5C 885.23,2136.86 880.064,2122.53 874,2108.5C 869.749,2104.12 864.582,2101.46 858.5,2100.5C 857.194,2101.91 856.36,2103.58 856,2105.5C 853.068,2117.1 850.568,2128.77 848.5,2140.5C 843.478,2139.49 838.478,2138.33 833.5,2137C 831.714,2136.8 830.381,2135.97 829.5,2134.5C 837.048,2103.21 844.381,2071.88 851.5,2040.5 Z"/></g>
<g><path style="opacity:1" fill="#0b5f08" d="M 1511.5,2078.5 C 1510.51,2069.35 1510.17,2060.01 1510.5,2050.5C 1510.34,2047.48 1510.5,2044.48 1511,2041.5C 1518.5,2051 1526,2060.5 1533.5,2070C 1526.37,2073.32 1519.04,2076.15 1511.5,2078.5 Z"/></g>
<g><path style="opacity:1" fill="#fafbfa" d="M 1378.5,2054.5 C 1380.17,2054.5 1381.83,2054.5 1383.5,2054.5C 1390.11,2086.36 1395.61,2118.36 1400,2150.5C 1394.35,2152.7 1388.52,2153.86 1382.5,2154C 1366.33,2135.83 1350.17,2117.67 1334,2099.5C 1337.75,2120.43 1341.58,2141.43 1345.5,2162.5C 1339.5,2163.5 1333.5,2164.5 1327.5,2165.5C 1321.74,2133.18 1316.07,2100.85 1310.5,2068.5C 1316.45,2067.07 1322.45,2066.24 1328.5,2066C 1344.69,2084.02 1360.69,2102.18 1376.5,2120.5C 1376.83,2119.83 1377.17,2119.17 1377.5,2118.5C 1373.79,2099.01 1370.12,2079.51 1366.5,2060C 1366.59,2058.89 1366.92,2057.89 1367.5,2057C 1371.35,2056.37 1375.01,2055.53 1378.5,2054.5 Z"/></g>
<g><path style="opacity:1" fill="#0e600a" d="M 866.5,2060.5 C 876.47,2063.33 886.47,2066.16 896.5,2069C 902.912,2075.88 902.912,2082.88 896.5,2090C 894.091,2090.93 891.591,2091.43 889,2091.5C 880.005,2090.21 871.171,2088.21 862.5,2085.5C 862.167,2084.5 861.833,2083.5 861.5,2082.5C 862.915,2075.09 864.581,2067.76 866.5,2060.5 Z"/></g>
<g><path style="opacity:1" fill="#fafbf9" d="M 951.5,2063.5 C 965.151,2062.23 977.818,2065.06 989.5,2072C 997.746,2079.33 1001.41,2088.49 1000.5,2099.5C 994.116,2099.24 987.782,2098.58 981.5,2097.5C 981.549,2089.05 977.549,2083.55 969.5,2081C 964.833,2080.33 960.167,2080.33 955.5,2081C 950.076,2083.02 948.242,2086.85 950,2092.5C 951.5,2094 953,2095.5 954.5,2097C 965.926,2101.91 976.926,2107.58 987.5,2114C 998.211,2124.56 1000.38,2136.73 994,2150.5C 989.359,2159.74 981.859,2164.91 971.5,2166C 955.118,2168.2 940.951,2163.7 929,2152.5C 924.019,2144.58 921.519,2135.91 921.5,2126.5C 927.833,2126.5 934.167,2126.5 940.5,2126.5C 940.912,2143.41 949.579,2150.91 966.5,2149C 977.142,2146.06 980.142,2139.72 975.5,2130C 964.131,2123.99 952.798,2117.99 941.5,2112C 927.813,2098.54 927.146,2084.54 939.5,2070C 943.434,2067.54 947.434,2065.37 951.5,2063.5 Z"/></g>
<g><path style="opacity:1" fill="#79a877" d="M 1510.5,2050.5 C 1510.17,2060.01 1510.51,2069.35 1511.5,2078.5C 1511.44,2079.04 1511.11,2079.38 1510.5,2079.5C 1509.18,2069.67 1509.18,2060.01 1510.5,2050.5 Z"/></g>
<g><path style="opacity:1" fill="#fafbfa" d="M 1265.5,2073.5 C 1267.92,2073.19 1270.26,2073.53 1272.5,2074.5C 1287.83,2105.17 1303.17,2135.83 1318.5,2166.5C 1311.95,2168.32 1305.29,2169.16 1298.5,2169C 1294.9,2162.46 1291.56,2155.79 1288.5,2149C 1275.85,2149.72 1263.18,2150.55 1250.5,2151.5C 1248.52,2159.44 1246.85,2167.44 1245.5,2175.5C 1238.8,2175.89 1232.14,2176.55 1225.5,2177.5C 1233.68,2144.11 1242.18,2110.77 1251,2077.5C 1251.67,2076.42 1252.67,2075.75 1254,2075.5C 1258.01,2075.01 1261.84,2074.34 1265.5,2073.5 Z"/></g>
<g><path style="opacity:1" fill="#fafbfa" d="M 1067.5,2106.5 C 1066.35,2111.65 1066.18,2116.98 1067,2122.5C 1067.72,2121.96 1068.22,2121.29 1068.5,2120.5C 1080.97,2107.87 1093.3,2095.03 1105.5,2082C 1114.19,2081.17 1122.85,2081.33 1131.5,2082.5C 1119,2094.17 1107,2106.33 1095.5,2119C 1106.83,2139.32 1118.16,2159.65 1129.5,2180C 1121.49,2180.33 1113.49,2180 1105.5,2179C 1097.63,2163.42 1089.63,2147.92 1081.5,2132.5C 1076.18,2137.32 1071.01,2142.32 1066,2147.5C 1064.64,2157.44 1064.14,2167.44 1064.5,2177.5C 1058.13,2177.65 1051.8,2177.32 1045.5,2176.5C 1046.52,2143.81 1047.85,2111.14 1049.5,2078.5C 1055.83,2078.5 1062.17,2078.5 1068.5,2078.5C 1067.82,2087.82 1067.48,2097.15 1067.5,2106.5 Z"/></g>
<g><path style="opacity:1" fill="#fbfcfb" d="M 1195.5,2080.5 C 1201.83,2080.5 1208.17,2080.5 1214.5,2080.5C 1214.5,2113.5 1214.5,2146.5 1214.5,2179.5C 1208.17,2179.5 1201.83,2179.5 1195.5,2179.5C 1195.5,2165.17 1195.5,2150.83 1195.5,2136.5C 1183.17,2136.5 1170.83,2136.5 1158.5,2136.5C 1158.5,2151.17 1158.5,2165.83 1158.5,2180.5C 1152.17,2180.5 1145.83,2180.5 1139.5,2180.5C 1139.5,2147.5 1139.5,2114.5 1139.5,2081.5C 1145.5,2081.5 1151.5,2081.5 1157.5,2081.5C 1157.5,2094.5 1157.5,2107.5 1157.5,2120.5C 1170.17,2120.5 1182.83,2120.5 1195.5,2120.5C 1195.5,2107.17 1195.5,2093.83 1195.5,2080.5 Z"/></g>
<g><path style="opacity:1" fill="#12610e" d="M 1263.5,2097.5 C 1269.14,2108.77 1274.8,2120.11 1280.5,2131.5C 1272.24,2133.16 1263.91,2134.16 1255.5,2134.5C 1257.69,2122.07 1260.36,2109.74 1263.5,2097.5 Z"/></g>
<g><path style="opacity:1" fill="#90b68e" d="M 1195.5,2080.5 C 1195.5,2093.83 1195.5,2107.17 1195.5,2120.5C 1182.83,2120.5 1170.17,2120.5 1157.5,2120.5C 1157.5,2107.5 1157.5,2094.5 1157.5,2081.5C 1158.5,2093.99 1158.83,2106.66 1158.5,2119.5C 1170.5,2119.5 1182.5,2119.5 1194.5,2119.5C 1194.17,2106.32 1194.5,2093.32 1195.5,2080.5 Z"/></g>
<g><path style="opacity:1" fill="#61975f" d="M 1067.5,2106.5 C 1067.18,2111.36 1067.51,2116.03 1068.5,2120.5C 1068.22,2121.29 1067.72,2121.96 1067,2122.5C 1066.18,2116.98 1066.35,2111.65 1067.5,2106.5 Z"/></g>
</svg>
